{
  "accessors": [
    {
      "bufferView": 2,
      "componentType": 5126,
      "count": 342,
      "max": [
        17.58517837524414,
        12.450191497802734,
        3.9316213130950928
      ],
      "min": [
        -3.9316213130950928,
        -0.0201791450381279,
        -3.9316213130950928
      ],
      "type": "VEC3"
    },
    {
      "bufferView": 2,
      "byteOffset": 4104,
      "componentType": 5126,
      "count": 342,
      "max": [
        0.999855637550354,
        1.0,
        1.0
      ],
      "min": [
        -0.999855637550354,
        -0.5899719595909119,
        -0.999855637550354
      ],
      "type": "VEC3"
    },
    {
      "bufferView": 1,
      "componentType": 5126,
      "count": 342,
      "max": [
        0.9860503673553467,
        0.9859282970428467
      ],
      "min": [
        0.018291600048542023,
        0.010019004344940186
      ],
      "type": "VEC2"
    },
    {
      "bufferView": 1,
      "byteOffset": 2736,
      "componentType": 5126,
      "count": 342,
      "max": [
        0.9860503673553467,
        0.9859282970428467
      ],
      "min": [
        0.018291600048542023,
        0.010019004344940186
      ],
      "type": "VEC2"
    },
    {
      "bufferView": 0,
      "componentType": 5125,
      "count": 1350,
      "type": "SCALAR"
    },
    {
      "bufferView": 2,
      "byteOffset": 8208,
      "componentType": 5126,
      "count": 100,
      "max": [
        1.4930394887924194,
        10.63534927368164,
        1.5919240713119507
      ],
      "min": [
        -1.5518310070037842,
        0.002323329448699951,
        -1.423685073852539
      ],
      "type": "VEC3"
    },
    {
      "bufferView": 2,
      "byteOffset": 9408,
      "componentType": 5126,
      "count": 100,
      "max": [
        0.999855637550354,
        0.999989926815033,
        0.999855637550354
      ],
      "min": [
        -0.999855637550354,
        -0.5899719595909119,
        -0.999855637550354
      ],
      "type": "VEC3"
    },
    {
      "bufferView": 1,
      "byteOffset": 5472,
      "componentType": 5126,
      "count": 100,
      "max": [
        0.9860503673553467,
        0.9859282970428467
      ],
      "min": [
        0.018291600048542023,
        0.010019004344940186
      ],
      "type": "VEC2"
    },
    {
      "bufferView": 1,
      "byteOffset": 6272,
      "componentType": 5126,
      "count": 100,
      "max": [
        0.9860503673553467,
        0.9859282970428467
      ],
      "min": [
        0.018291600048542023,
        0.010019004344940186
      ],
      "type": "VEC2"
    },
    {
      "bufferView": 0,
      "byteOffset": 5400,
      "componentType": 5125,
      "count": 150,
      "type": "SCALAR"
    },
    {
      "bufferView": 2,
      "byteOffset": 10608,
      "componentType": 5126,
      "count": 121,
      "max": [
        3.9316213130950928,
        -0.020178910344839096,
        3.9316213130950928
      ],
      "min": [
        -3.9316213130950928,
        -0.0201791450381279,
        -3.9316213130950928
      ],
      "type": "VEC3"
    },
    {
      "bufferView": 2,
      "byteOffset": 12060,
      "componentType": 5126,
      "count": 121,
      "max": [
        1.4923439550784678e-07,
        1.0,
        1.1221553819495966e-07
      ],
      "min": [
        -1.4923443814041093e-07,
        1.0,
        0.0
      ],
      "type": "VEC3"
    },
    {
      "bufferView": 1,
      "byteOffset": 7072,
      "componentType": 5126,
      "count": 121,
      "max": [
        0.6468515396118164,
        0.26027584075927734
      ],
      "min": [
        0.4161025881767273,
        0.02952679991722107
      ],
      "type": "VEC2"
    },
    {
      "bufferView": 1,
      "byteOffset": 8040,
      "componentType": 5126,
      "count": 121,
      "max": [
        0.6468515396118164,
        0.26027584075927734
      ],
      "min": [
        0.4161025881767273,
        0.02952679991722107
      ],
      "type": "VEC2"
    },
    {
      "bufferView": 0,
      "byteOffset": 6000,
      "componentType": 5125,
      "count": 600,
      "type": "SCALAR"
    }
  ],
  "asset": {
    "extras": {
      "author": "hanjum (https://sketchfab.com/hanjum)",
      "license": "CC-BY-4.0 (http://creativecommons.org/licenses/by/4.0/)",
      "source": "https://sketchfab.com/3d-models/fence-1e15eed91ee240e1b67fc2b4b4d28945",
      "title": "Fence"
    },
    "generator": "Sketchfab-12.65.0",
    "version": "2.0"
  },
  "bufferViews": [
    {
      "buffer": 0,
      "byteLength": 8400,
      "name": "floatBufferViews",
      "target": 34963
    },
    {
      "buffer": 0,
      "byteLength": 9008,
      "byteOffset": 8400,
      "byteStride": 8,
      "name": "floatBufferViews",
      "target": 34962
    },
    {
      "buffer": 0,
      "byteLength": 13512,
      "byteOffset": 17408,
      "byteStride": 12,
      "name": "floatBufferViews",
      "target": 34962
    }
  ],
  "buffers": [
    {
      "byteLength": 30920,
      "uri": "scene.bin"
    }
  ],
  "images": [
    {
      "uri": "textures/blinn1_baseColor.png"
    }
  ],
  "materials": [
    {
      "alphaMode": "BLEND",
      "doubleSided": true,
      "name": "blinn1",
      "pbrMetallicRoughness": {
        "baseColorTexture": {
          "index": 0
        },
        "metallicFactor": 0.0,
        "roughnessFactor": 0.7919104275
      }
    },
    {
      "alphaMode": "BLEND",
      "doubleSided": true,
      "name": "pasted__blinn1",
      "pbrMetallicRoughness": {
        "baseColorTexture": {
          "index": 0
        },
        "metallicFactor": 0.0,
        "roughnessFactor": 0.7919104275
      }
    }
  ],
  "meshes": [
    {
      "name": "pCube2_blinn1_0",
      "primitives": [
        {
          "attributes": {
            "NORMAL": 1,
            "POSITION": 0,
            "TEXCOORD_0": 2,
            "TEXCOORD_1": 3
          },
          "indices": 4,
          "material": 0,
          "mode": 4
        }
      ]
    },
    {
      "name": "polySurface1_pasted__blinn1_0",
      "primitives": [
        {
          "attributes": {
            "NORMAL": 6,
            "POSITION": 5,
            "TEXCOORD_0": 7,
            "TEXCOORD_1": 8
          },
          "indices": 9,
          "material": 1,
          "mode": 4
        }
      ]
    },
    {
      "name": "polySurface3_pasted__blinn1_0",
      "primitives": [
        {
          "attributes": {
            "NORMAL": 11,
            "POSITION": 10,
            "TEXCOORD_0": 12,
            "TEXCOORD_1": 13
          },
          "indices": 14,
          "material": 1,
          "mode": 4
        }
      ]
    }
  ],
  "nodes": [
    {
      "children": [
        1
      ],
      "matrix": [
        1.0,
        0.0,
        0.0,
        0.0,
        0.0,
        2.220446049250313e-16,
        -1.0,
        0.0,
        0.0,
        1.0,
        2.220446049250313e-16,
        0.0,
        0.0,
        0.0,
        0.0,
        1.0
      ],
      "name": "Sketchfab_model"
    },
    {
      "children": [
        2
      ],
      "matrix": [
        1.0,
        0.0,
        0.0,
        0.0,
        0.0,
        0.0,
        1.0,
        0.0,
        0.0,
        -1.0,
        0.0,
        0.0,
        0.0,
        0.0,
        0.0,
        1.0
      ],
      "name": "65480f3e9c1e4094aff2ae543cbbc756.fbx"
    },
    {
      "children": [
        3,
        5
      ],
      "name": "RootNode"
    },
    {
      "children": [
        4
      ],
      "name": "pCube2"
    },
    {
      "mesh": 0,
      "name": "pCube2_blinn1_0"
    },
    {
      "children": [
        6
      ],
      "matrix": [
        1.0,
        0.0,
        0.0,
        0.0,
        0.0,
        1.0,
        0.0,
        0.0,
        0.0,
        0.0,
        1.0,
        0.0,
        18.25760269165039,
        0.0,
        0.0,
        1.0
      ],
      "name": "group1"
    },
    {
      "children": [
        7,
        9
      ],
      "name": "pasted__pCube2"
    },
    {
      "children": [
        8
      ],
      "name": "polySurface1"
    },
    {
      "mesh": 1,
      "name": "polySurface1_pasted__blinn1_0"
    },
    {
      "children": [
        10
      ],
      "name": "polySurface3"
    },
    {
      "mesh": 2,
      "name": "polySurface3_pasted__blinn1_0"
    }
  ],
  "samplers": [
    {
      "magFilter": 9729,
      "minFilter": 9987,
      "wrapS": 10497,
      "wrapT": 10497
    }
  ],
  "scene": 0,
  "scenes": [
    {
      "name": "Sketchfab_Scene",
      "nodes": [
        0
      ]
    }
  ],
  "textures": [
    {
      "sampler": 0,
      "source": 0
    }
  ]
}
